<svg width="256" height="244" viewBox="0 0 256 244" fill="none" xmlns="http://www.w3.org/2000/svg">
<path opacity="0.1" d="M174.689 -10.4327C172.691 -11.6205 171.097 -12.5749 170.002 -13.2324C169.396 -13.593 168.939 -13.8687 168.663 -14.0384L168.769 -14.1551L168.577 -14.1975L168.663 -14.2929L168.439 -14.2293L168.248 -14.2717L167.812 -14.5368V-14.3778L87.2666 -32.7667C87.2453 -32.7879 87.2241 -32.8197 87.1922 -32.8303C87.0859 -32.9046 86.9584 -32.9152 86.8521 -32.8621L86.225 -33L86.4375 -32.5758L52.829 -9.19195L52.4677 -9.42526L52.4889 -9.04348L4.20194 -21.377L4.06376 -21.4831L4.11691 -21.8966L3.90433 -21.8012L3.7449 -22.3314L3.44729 -21.5891L-58.9336 7.98803L-36.0284 -23.1692C-36.0284 -23.1692 -36.0177 -23.1904 -36.0071 -23.2011C-35.9327 -23.3283 -35.9433 -23.4768 -36.039 -23.5934C-36.1453 -23.7101 -36.3153 -23.7419 -36.4535 -23.6677L-72.6236 -3.7092C-72.6236 -3.7092 -72.7192 -3.63497 -72.7511 -3.59255C-72.7724 -3.55013 -72.7936 -3.50771 -72.7936 -3.46529C-72.8043 -3.35924 -72.7724 -3.25319 -72.698 -3.17896L-60.4535 8.84702C-62.3561 10.6817 -75.0363 22.9304 -87.7804 35.2851C-94.6891 41.9874 -101.63 48.7215 -106.87 53.8437C-109.495 56.4101 -111.695 58.5629 -113.258 60.1112C-114.044 60.8854 -114.661 61.5111 -115.097 61.9565C-115.32 62.1792 -115.49 62.3595 -115.617 62.4973C-115.681 62.561 -115.734 62.6246 -115.766 62.667L-115.819 62.7412C-115.819 62.7412 -115.851 62.7837 -115.862 62.8049L-115.915 62.9003V63.0064H-115.904V63.0488L-115.979 63.123H-115.894L-110.42 109.583L-110.377 109.976L-110.197 109.923L-23.5926 207.573L-23.3906 207.795L-22.9974 208.241L-22.9123 208.273C-22.9123 208.273 -22.9123 208.273 -22.9017 208.273L-22.806 208.304C-20.9991 208.962 3.02212 217.732 27.1178 226.375C39.6492 230.872 52.1913 235.336 61.6404 238.613C66.3702 240.246 70.3242 241.593 73.1196 242.495C74.5226 242.94 75.628 243.279 76.4039 243.502C76.7865 243.608 77.0948 243.682 77.318 243.725C77.403 243.735 77.4774 243.757 77.5518 243.757L77.8069 243.788L78.147 243.46L104.677 217.859L105.081 218.082L105.006 217.679L164.464 200.605L107.642 186.776L108.089 182.025L209.828 146.902L208.946 146.637L172.383 99.7948L180.248 93.9409C180.726 93.5804 181.226 93.2198 181.715 92.8592C194.799 83.2406 213.038 69.9632 228.12 58.8917C235.667 53.3559 242.427 48.3716 247.348 44.6705C249.814 42.8146 251.823 41.2875 253.247 40.174C253.959 39.6119 254.523 39.1559 254.937 38.8165C255.139 38.6469 255.309 38.4984 255.426 38.3817C255.554 38.2545 255.628 38.1802 255.702 38.0636C255.724 38.0318 255.745 37.9894 255.766 37.8939V37.7985L256 37.6182L255.681 37.65L255.596 37.5545L255.554 37.5333C255.5 37.5121 255.256 37.3849 254.905 37.1834C252.418 35.7729 243.564 30.5447 232.436 23.9378C219.5 16.2599 203.483 6.71544 190.686 -0.909503C184.287 -4.72728 178.696 -8.05722 174.71 -10.4433L174.689 -10.4327ZM248.358 34.161C250.42 35.3805 252.089 36.3562 253.279 37.0349C253.81 37.3425 254.236 37.5864 254.554 37.7667L193.024 43.4297L168.609 -13.2854C173.711 -10.2418 208.181 10.3317 232.074 24.5211C238.537 28.3601 244.234 31.7325 248.358 34.161ZM191.345 85.001C183.819 90.5155 177.081 95.4574 172.191 99.0949C172.106 99.1585 172.021 99.2222 171.936 99.2858L169.077 95.6165L183.894 63.5366L193.024 43.7902L193.183 43.8115L193.162 43.7584L254.788 38.0954C254.788 38.0954 254.767 38.1166 254.746 38.1272C254.661 38.2015 254.554 38.2863 254.448 38.3817L215.398 67.418C207.277 73.3568 198.912 79.4652 191.345 85.001ZM19.55 169.554L26.6926 162.99L37.3215 179.491L19.5394 169.554H19.55ZM-15.6528 149.871L-15.2489 149.712L13.4065 142.808L3.4898 160.561L-15.6422 149.861L-15.6528 149.871ZM-85.8672 34.3625C-79.2029 27.9041 -72.6767 21.5941 -67.8087 16.8856C-65.3747 14.5313 -63.3552 12.5906 -61.9522 11.2225C-61.07 10.3741 -60.4323 9.74845 -60.0709 9.40909L-54.7352 49.379L-114.618 62.4337C-111.44 59.1992 -98.4199 46.5369 -85.8672 34.3731V34.3625ZM91.38 147.231L86.2994 145.332L75.713 141.377L75.7768 141.281H75.6705L84.5987 110.315L91.3693 147.241L91.38 147.231ZM75.1284 141.621L71.4083 146.902L45.3569 183.956L37.938 179.809L26.9371 162.735L49.4491 142.066L75.1284 141.61V141.621ZM-4.52437 76.814L23.8547 58.5417L11.5571 86.2842L-9.25422 79.8682L-4.51374 76.814H-4.52437ZM26.7777 52.7726L27.2347 52.8681L27.1922 52.7408L30.2214 53.6528L24.8538 57.11L26.7245 52.8999L26.7777 52.7726ZM39.6917 141.918L14.5013 142.363L69.4845 116.561L70.6749 121.683L48.8113 141.759L39.6917 141.918ZM57.7927 60.9172L71.6421 40.4921L74.2462 54.533L57.7927 60.9172ZM66.5403 103.952L69.1444 115.108L17.4987 135.82L39.1072 95.4786L66.5403 103.941V103.952ZM69.4526 114.992L66.9123 104.069L83.7378 109.265L69.4526 114.992ZM76.7653 112.775L69.7077 116.084L69.6014 115.649L76.7546 112.775H76.7653ZM39.4367 94.8954L56.868 62.3701L66.3808 103.21L39.4473 94.8954H39.4367ZM38.7883 95.3938L17.0204 136.032L12.163 137.983L6.3596 122.701L31.0824 93.0183L38.7989 95.3938H38.7883ZM69.2932 115.776L69.3994 116.232L14.0974 142.183L17.0097 136.753L69.2932 115.776ZM69.7821 116.423L82.1647 110.612L83.1639 110.209L70.9513 121.418L69.7821 116.413V116.423ZM84.0141 108.661L66.7316 103.326L57.24 62.5928L84.0035 108.661H84.0141ZM57.527 61.7444L74.3631 55.2117L84.0461 107.399L57.5164 61.7444H57.527ZM39.1072 94.8105L31.5288 92.4774L56.2834 62.7518L39.1072 94.8105ZM11.589 87.0159L30.721 92.9229L6.2108 122.352L1.45969 109.848L11.5784 87.0159H11.589ZM1.30026 109.403L-9.70063 80.4515L11.2701 86.9205L1.30026 109.403ZM5.97696 122.648L-15.8016 148.8L1.27899 110.283L5.97696 122.648ZM6.11514 123.009L11.8547 138.121L-15.6528 149.161L6.12577 123.009H6.11514ZM16.5314 136.954L13.7467 142.162L12.3968 138.619L16.5314 136.965V136.954ZM84.3224 110.071L75.4685 140.804L71.132 122.182L84.3224 110.071ZM84.8857 108.215L75.3941 57.0888L75.0009 54.9678L92.2409 48.2761L121.608 36.8758L84.8857 108.215ZM79.0292 29.6009L88.9247 15.0085L120.843 35.6987L79.0292 29.6009ZM121.003 36.388L82.3029 51.4152L74.8733 54.2997L72.163 39.7286L78.6041 30.2265L120.992 36.3986L121.003 36.388ZM72.0779 39.2513L71.9929 38.8059L70.1754 28.9858L78.2427 30.1629L72.0779 39.2513ZM69.527 29.1342L71.5465 40.0361L57.3357 60.9914L55.9539 37.8727L69.527 29.1342ZM55.3162 38.2863L56.6979 61.2884L31.4331 53.6634L55.3268 38.2757L55.3162 38.2863ZM56.6979 61.6383L56.7192 61.6701V61.702L31.1886 92.3608L11.8654 86.4008L24.3543 58.2235L31.0505 53.9073L56.6873 61.6383H56.6979ZM-52.3331 63.5366L-31.8512 49.5275L-10.7848 79.5288L-52.3331 63.5366ZM-22.2427 42.9843L-11.0399 78.0017L-31.2985 49.1457L-22.3171 42.9949H-22.2427V42.9843ZM-32.0425 49.2518L-52.5669 63.2927L-54.3419 49.9835L-34.5616 45.6779L-32.0425 49.2624V49.2518ZM-12.3578 79.2743L-48.3472 73.4734L-52.3862 63.8654L-12.3578 79.2743ZM1.09831 109.827L-15.9823 148.344L-9.82818 81.0772L1.09831 109.838V109.827ZM12.0779 138.726L13.4703 142.384H13.4065L13.4384 142.437L-13.1444 148.843L12.0779 138.726ZM14.0124 142.713L35.5784 142.331L48.4287 142.108L26.5545 162.194L14.0018 142.724L14.0124 142.713ZM49.8104 141.748L70.845 122.436L75.2347 141.292L49.8104 141.748ZM122.363 36.8546L122.895 37.5333L163.858 105.331L85.2896 108.873L122.363 36.8546ZM124.616 39.7392L164.4 90.7064L163.943 104.811L124.616 39.7392ZM165.038 91.5336L168.524 95.9983L164.624 104.44L165.038 91.5336ZM165.07 90.4943L166.675 41.033L192.652 43.7372L168.822 95.309L165.059 90.4837L165.07 90.4943ZM166.016 40.9693L164.432 89.6777L122.905 36.4729L127.401 36.9395L166.005 40.9693H166.016ZM160.287 40.0361L122.852 36.1335L167.77 -13.0627L166.027 40.6406L160.287 40.0467V40.0361ZM93.07 9.15457L105.931 5.22014L121.375 35.1472L93.07 9.14396V9.15457ZM120.004 34.3519L89.2967 14.457L92.7723 9.33485L120.004 34.3519ZM88.6483 14.8176L78.6678 29.5372L70.1966 28.3071L76.2551 6.77906L88.6483 14.8176ZM69.1869 28.5616L55.9114 37.1091L54.7422 17.6491L69.1762 28.5616H69.1869ZM55.2737 37.5227L30.5934 53.4195L27.0753 52.359V52.3378L27.0328 52.2106L44.9211 10.2257L54.062 17.1295L55.2843 37.5333L55.2737 37.5227ZM26.2568 51.9985L-5.05581 45.6779L3.82993 -19.8075L26.2568 51.9985ZM26.4375 52.709L24.3436 57.4388L-9.6156 79.3061L-5.14084 46.3354L26.4375 52.709ZM-31.4898 48.87L-33.8494 45.5082L-23.178 43.1858L-31.4898 48.87ZM-34.9761 45.0734L-54.4269 49.3154L-59.6882 9.8757L-34.9655 45.0734H-34.9761ZM-54.6714 50.0471L-52.8858 63.4094L-113.385 62.8367L-54.6714 50.0471ZM-48.7405 73.4204L-62.0372 71.2782L-52.7582 63.8548L-48.7299 73.4204H-48.7405ZM-11.5501 80.0803L-41.8105 89.0308L-48.039 74.2052L-11.5501 80.0803ZM-10.434 80.4409L-16.6838 148.8L-41.5554 89.6353L-10.434 80.4303V80.4409ZM-16.8539 149.277L-92.0744 116.964L-109.155 109.626L-41.8849 89.7414L-16.8539 149.277ZM18.4021 169.671L-21.9238 206.703L3.42603 161.303L18.4021 169.671ZM3.75552 160.72L13.7254 142.872L26.3206 162.406L18.9336 169.193L3.76616 160.71L3.75552 160.72ZM44.9637 184.518L42.9229 187.423H42.9017L42.8166 187.392L38.7033 181.018L44.9637 184.518ZM46.9194 185.61L43.38 187.349L45.2613 184.677L46.9194 185.61ZM58.6856 192.196L54.4552 193.002L43.4331 187.699L47.2701 185.811L58.6856 192.196ZM59.589 192.705L94.9832 212.493L55.465 193.489L59.589 192.705ZM60.6094 192.514L98.3525 185.355L104.135 216.841L60.6094 192.514ZM59.7059 192.005L47.9929 185.461L94.1966 162.735L98.1931 184.528L98.225 184.708L59.6953 192.015L59.7059 192.005ZM47.6422 185.26L45.6333 184.136L51.0753 176.394L75.4898 141.663L91.4225 147.623L94.1328 162.396L47.6315 185.271L47.6422 185.26ZM92.1559 147.899L110.023 154.58L95.9504 161.505L94.7599 162.088L92.1559 147.899ZM110.066 154.241L92.0815 147.517L89.5518 133.709L85.3215 110.622L95.4189 128.428L110.076 154.251L110.066 154.241ZM85.194 109.721L140.868 126.668L110.48 154.294L85.194 109.721ZM127.858 122.012L86.6714 109.477L163.497 106.009L163.242 106.317L141.442 126.137L127.858 122.002V122.012ZM192.631 43.4085L166.675 40.7042L168.418 -12.8506L192.631 43.4085ZM122.363 35.6669L106.558 5.02925L167.27 -13.5294L122.363 35.6669ZM105.761 4.9232L92.868 8.86823L87.4048 -30.6669L105.761 4.9232ZM92.5172 8.8046L77.5518 2.10229L86.969 -31.335L92.5172 8.8046ZM92.4747 9.15457L88.9991 14.2767L76.4145 6.12156L77.4561 2.43105L92.4747 9.15457ZM75.8406 5.73978L55.6988 -7.31488L76.8503 2.15532L75.8406 5.73978ZM75.6492 6.40789L69.6758 27.6177L53.5837 -7.88754L75.6492 6.4185V6.40789ZM68.9105 27.5329L54.6785 16.7795L53.2542 -7.00733L68.9105 27.5329ZM53.9876 16.2493L45.1762 9.58937L52.5527 -7.72847L53.9876 16.2493ZM26.8627 51.7121L4.34012 -20.4438L44.6448 10.0136L26.8733 51.7227L26.8627 51.7121ZM-5.7148 45.5401L-21.5625 42.348L3.00088 -18.7258L-5.72543 45.5507L-5.7148 45.5401ZM-5.79983 46.1976L-10.1789 78.4683L-21.5199 43.0267L-5.79983 46.1976ZM-22.721 42.401L-34.264 44.9144L-58.0833 10.9998L-22.7316 42.401H-22.721ZM-53.1515 63.7275L-62.473 71.1934L-112.28 63.1654L-53.1515 63.7275ZM-48.4216 74.1309L-42.1187 89.1157L-108.996 108.894L-62.7175 71.8297L-48.411 74.1309H-48.4216ZM3.14968 161.134L-22.3596 206.809L-16.1524 150.338L3.14968 161.134ZM19.0292 170.01L38.0868 180.668L42.2427 187.116L41.9876 186.989L42.3702 187.593L-21.5093 207.233L19.0292 170.01ZM-16.992 206.544L42.7316 188.187L46.6643 194.476L-16.992 206.544ZM47.0469 195.08L58.7174 213.724L-20.2657 207.848L47.0576 195.08H47.0469ZM54.3809 193.691L102.87 217.011L59.5359 213.787L47.7484 194.953L54.3809 193.691ZM47.3764 194.338L43.7732 188.59L53.3711 193.203L47.3764 194.338ZM103.837 217.743C102.126 219.365 96.6731 224.551 91.1568 229.822C87.8299 233.003 84.4925 236.217 81.9309 238.698C80.6554 239.939 79.5713 240.999 78.7954 241.784C78.4021 242.177 78.0939 242.495 77.86 242.739C77.8175 242.781 77.775 242.823 77.7431 242.866L59.9823 214.476L103.837 217.743ZM99.0646 185.398L107.238 187.392L104.613 215.632L99.0646 185.398ZM98.8414 184.189L94.845 162.406L110.267 154.824L108.641 172.343L98.8414 184.189ZM108.524 173.52L107.791 181.442L99.6492 184.252L108.524 173.531V173.52ZM110.608 154.771L110.831 154.856L110.693 154.612L110.884 154.516L110.778 154.474L141.261 126.753L145.322 127.983L109.013 171.877L110.608 154.76V154.771ZM141.835 126.244L161.764 108.13L145.789 127.442L141.846 126.244H141.835ZM166.356 103.475C165.771 103.92 165.293 104.302 164.921 104.599L168.769 96.274L171.415 99.657C169.332 101.216 167.61 102.51 166.367 103.464L166.356 103.475ZM167.185 -13.8581L106.441 4.71111L87.4685 -32.035L167.175 -13.8475L167.185 -13.8581ZM86.4269 -31.7592L76.9672 1.82657L53.9132 -8.50263L53.4349 -8.81017L86.4269 -31.7592ZM52.5102 -8.70412V-8.48142L44.9211 9.37727L4.90344 -20.868L52.5208 -8.70412H52.5102ZM3.08591 -20.6771L-22.1364 42.0298L-59.3906 8.94247L3.08591 -20.6771ZM-71.9114 -3.32743L-37.4633 -22.3314L-60.0177 8.3592L-71.9114 -3.31682V-3.32743ZM-115.213 63.3775L-63.1639 71.766L-109.825 109.127L-115.213 63.3775ZM-108.879 110.463L-16.7901 150.02L-16.822 150.274L-17.0771 150.836L-16.8645 150.571L-23.0824 207.202L-108.868 110.463H-108.879ZM-20.3614 208.506L59.1426 214.423L65.7112 224.933L76.8928 242.813L-20.372 208.517L-20.3614 208.506ZM161.839 200.69L104.857 217.053L104.825 216.852L107.557 187.476L161.839 200.69ZM107.291 186.723L99.8087 184.899L107.706 182.174L107.281 186.723H107.291ZM108.131 181.325L108.896 173.075L146.002 128.216L207.639 146.976L108.12 181.325H108.131ZM207.809 146.329L146.459 127.665L163.88 106.603V106.921L164.517 105.829L164.56 105.776C164.613 105.723 164.73 105.617 164.879 105.49C165.41 105.034 166.441 104.238 167.887 103.135L171.819 100.208L207.809 146.319V146.329Z" fill="#35383F"/>
</svg>
