<svg width="24" height="24" viewBox="0 0 24 24" fill="none" xmlns="http://www.w3.org/2000/svg">
<g id="solar:phone-calling-line-duotone">
<g id="Group">
<path id="Vector" d="M13.5 2C13.5 2 15.834 2.212 18.803 5.182C21.773 8.152 21.985 10.485 21.985 10.485M14.207 5.536C14.207 5.536 15.197 5.818 16.682 7.303C18.167 8.788 18.45 9.778 18.45 9.778" stroke="#FF7019" stroke-width="1.5" stroke-linecap="round"/>
<path id="Vector_2" opacity="0.5" d="M15.556 14.547L16.1 15.064L15.556 14.548V14.547ZM19.002 20.254L18.457 19.737L19.001 20.254H19.002ZM17.676 20.964L17.75 21.709L17.676 20.963V20.964ZM15.645 15.543L16.1 15.063L15.012 14.03L14.557 14.511L15.645 15.543ZM17.599 14.861L19.509 15.962L20.257 14.661L18.347 13.561L17.599 14.861ZM19.878 18.241L18.458 19.736L19.545 20.77L20.965 19.275L19.878 18.241ZM17.603 20.216C16.168 20.357 12.423 20.237 8.359 15.959L7.272 16.991C11.701 21.654 15.926 21.89 17.75 21.709L17.603 20.216ZM8.359 15.959C4.483 11.878 3.833 8.435 3.752 6.925L2.254 7.006C2.354 8.856 3.138 12.639 7.272 16.991L8.359 15.959ZM9.735 9.321L10.021 9.019L8.934 7.986L8.647 8.288L9.735 9.321ZM10.247 5.259L8.986 3.477L7.761 4.343L9.021 6.126L10.247 5.26V5.259ZM4.717 3.091L3.149 4.745L4.237 5.778L5.807 4.125L4.719 3.092L4.717 3.091ZM9.191 8.804C9.01102 8.63055 8.82935 8.45888 8.646 8.289L8.644 8.291L8.641 8.294C8.62344 8.31254 8.60676 8.3319 8.591 8.352C8.49298 8.48175 8.41541 8.62575 8.361 8.779C8.263 9.054 8.211 9.418 8.277 9.872C8.407 10.764 8.992 11.963 10.519 13.572L11.607 12.538C10.179 11.035 9.827 10.11 9.761 9.654C9.729 9.434 9.761 9.319 9.774 9.282L9.782 9.263C9.77384 9.27617 9.76447 9.28856 9.754 9.3C9.74813 9.30678 9.74213 9.31345 9.736 9.32C9.736 9.32 9.734 9.32 9.191 8.804ZM10.519 13.572C12.042 15.176 13.192 15.805 14.069 15.948C14.52 16.021 14.885 15.962 15.161 15.853C15.3139 15.793 15.4561 15.7085 15.582 15.603C15.5943 15.592 15.6063 15.5807 15.618 15.569L15.632 15.555C15.6344 15.553 15.6367 15.551 15.639 15.549L15.642 15.546L15.643 15.544C15.643 15.544 15.645 15.543 15.101 15.026C14.557 14.51 14.558 14.509 14.558 14.508L14.56 14.507L14.562 14.504C14.5637 14.5024 14.5654 14.5007 14.567 14.499L14.577 14.489C14.5887 14.4777 14.6011 14.467 14.614 14.457C14.624 14.451 14.623 14.453 14.61 14.458C14.59 14.466 14.5 14.498 14.31 14.467C13.908 14.401 13.04 14.047 11.607 12.538L10.519 13.572ZM8.986 3.477C7.972 2.043 5.945 1.8 4.719 3.092L5.804 4.125C6.327 3.575 7.249 3.618 7.761 4.343L8.986 3.477ZM3.752 6.925C3.73 6.525 3.905 6.126 4.237 5.778L3.149 4.745C2.613 5.309 2.205 6.092 2.254 7.006L3.752 6.925ZM18.457 19.737C18.178 20.031 17.887 20.188 17.603 20.216L17.75 21.709C18.497 21.636 19.102 21.237 19.545 20.77L18.457 19.738V19.737ZM10.021 9.02C10.989 8.001 11.057 6.407 10.247 5.26L9.022 6.126C9.444 6.723 9.379 7.518 8.934 7.986L10.021 9.02ZM19.509 15.962C20.33 16.435 20.491 17.597 19.878 18.242L20.965 19.275C22.27 17.901 21.89 15.602 20.258 14.662L19.509 15.962ZM16.1 15.064C16.485 14.658 17.086 14.567 17.599 14.862L18.347 13.562C17.248 12.93 15.887 13.112 15.012 14.032L16.1 15.064Z" fill="#FF7019"/>
</g>
</g>
</svg>
